# AST/ASF file generated using VICON BodyLanguage
# -----------------------------------------------
:version 1.10
:name VICON
:units
  mass 1.0
  length 0.45
  angle deg
:documentation
   .ast/.asf automatically generated from VICON data using
   VICON BodyBuilder and BodyLanguage model FoxedUp or BRILLIANT.MOD
:root
   order TX TY TZ RX RY RZ
   axis XYZ
   position 0 0 0  
   orientation 0 0 0 
:bonedata
  begin
     id 1 
     name lhipjoint
     direction 0.611823 -0.767273 0.19226 
     length 2.47422 
     axis 0 0 0  XYZ
  end
  begin
     id 2 
     name lfemur
     direction 0.34202 -0.939693 0  
     length 7.40835  
     axis 0 0 20  XYZ
    dof rx ry rz
    limits (-160.0 20.0)
           (-70.0 70.0)
           (-60.0 70.0)
  end
  begin
     id 3 
     name ltibia
     direction 0.34202 -0.939693 0   
     length 8.03679   
     axis 0 0 20   XYZ
    dof rx
    limits (-10.0 170.0)
  end
  begin
     id 4 
     name lfoot
     direction 0.0883598 -0.242766 0.966052   
     length 2.06694   
     axis -90 7.62852e-016 20   XYZ
    dof rx rz
    limits (-45.0 90.0)
           (-70.0 20.0)
  end
  begin
     id 5 
     name ltoes
     direction 1.53617e-011 -4.21699e-011 1   
     length 1.03711   
     axis -90 7.62852e-016 20   XYZ
    dof rx
    limits (-90.0 20.0)
  end
  begin
     id 6 
     name rhipjoint
     direction -0.590066 -0.783143 0.196236   
     length 2.42408  
     axis 0 0 0  XYZ 
  end
  begin
     id 7 
     name rfemur
     direction -0.34202 -0.939693 0   
     length 7.88987   
     axis 0 0 -20   XYZ
    dof rx ry rz
    limits (-160.0 20.0)
           (-70.0 70.0)
           (-70.0 60.0)
  end
  begin
     id 8 
     name rtibia
     direction -0.34202 -0.939693 0   
     length 7.87584   
     axis 0 0 -20   XYZ
    dof rx
    limits (-10.0 170.0)
 end
 begin
     id 9 
     name rfoot
     direction -0.130476 -0.358481 0.924374   
     length 2.21745  
     axis -90 -7.62852e-016 -20   XYZ
    dof rx rz
    limits (-45.0 90.0)
           (-20.0 70.0)
  end
  begin
     id 10 
     name rtoes
     direction 8.20695e-005 8.89091e-005 1   
     length 1.09536   
     axis -90 -7.62852e-016 -20   XYZ
    dof rx
    limits (-90.0 20.0)
  end
  begin
     id 11 
     name lowerback
     direction 0.00981224 0.999875 -0.0124197   
     length 1.94808   
     axis 0 0 0   XYZ
    dof rx ry rz
    limits (-20.0 45.0)
           (-30.0 30.0)
           (-30.0 30.0)
  end
  begin
     id 12 
     name upperback
     direction 0.038911 0.999194 0.00981686   
     length 1.94415   
     axis 0 0 0   XYZ
    dof rx ry rz
    limits (-20.0 45.0)
           (-30.0 30.0)
           (-30.0 30.0)
  end
  begin
     id 13 
     name thorax
     direction 0.0330692 0.999334 0.0154389   
     length 1.94117   
     axis 0 0 0   XYZ
    dof rx ry rz
    limits (-20.0 45.0)
           (-30.0 30.0)
           (-30.0 30.0)
  end
  begin
     id 14 
     name lowerneck
     direction -0.0374305 0.99415 0.10132   
     length 1.87291   
     axis 0 0 0   XYZ
    dof rx ry rz
    limits (-20.0 45.0)
           (-30.0 30.0)
           (-30.0 30.0)
  end
  begin
     id 15 
     name upperneck
     direction 0.0120692 0.985979 -0.166431   
     length 1.89248   
     axis 0 0 0   XYZ
    dof rx ry rz
    limits (-20.0 45.0)
           (-30.0 30.0)
           (-30.0 30.0)
  end
  begin
     id 16
     name head
     direction 0.00629908 0.997708 -0.06737  
     length 1.90559  
     axis 0 0 0   XYZ
    dof rx ry rz
    limits (-20.0 45.0)
           (-30.0 30.0)
           (-30.0 30.0)
  end
  begin
     id 17 
     name lclavicle
     direction 0.961536 0.27308 -0.0295863  
     length 3.52757  
     axis 0 0 0   XYZ
    dof ry rz
    limits (-20.0 10.0)
           (0.0 20.0)
  end
  begin
     id 18 
     name lhumerus
     direction 1 -4.48969e-011 2.61153e-029   
     length 5.14845   
     axis 180 -30 -90   XYZ
    dof rx ry rz
    limits (-60.0 90.0)
           (-90.0 90.0)
           (-90.0 90.0)
  end
  begin
     id 19
     name lradius
     direction 1 -4.4896e-011 -3.37549e-027   
     length 3.43674   
     axis 180 -30 -90   XYZ
    dof rx
    limits (-10.0 170.0)
  end
  begin
     id 20
     name lwrist
     direction 1 -4.48969e-011 2.56952e-028   
     length 1.71837   
     axis -5.12785e-016 90 90   XYZ
    dof ry
    limits (-180.0 0.0)
 end
  begin
     id 21 
     name lhand
     direction 1 -4.49094e-011 5.13905e-028   
     length 0.588709   
     axis -3.27915e-016 90 90   XYZ
    dof rx rz
    limits (-90.0 90.0)
           (-45.0 45.0)
  end
  begin
     id 22 
     name lfingers
     direction 1 -4.48821e-011 1.02781e-027   
     length 0.474633   
     axis -6.5583e-016 90 90   XYZ
    dof rx
    limits (0.0 90.0)
  end
  begin
     id 23
     name lthumb
     direction 0.707107 -6.34922e-011 0.707107   
     length 0.68148   
     axis -90 45 2.85299e-015   XYZ
    dof rx rz
    limits (-45.0 45.0)
           (-45.0 45.0)
  end
  begin
     id 24 
     name rclavicle
     direction -0.940964 0.333844 -0.0559866   
     length 3.55948  
     axis 0 0 0   XYZ 
    dof ry rz
    limits (-10.0 20.0)
           (-20.0 0.0)
  end
  begin
     id 25 
     name rhumerus
     direction -1 -4.48973e-011 3.15259e-027  
     length 5.42185   
     axis 180 30 90   XYZ
    dof rx ry rz
    limits (-90.0 60.0)
           (-90.0 90.0)
           (-90.0 90.0)
  end
  begin
     id 26 
     name rradius
     direction -1 -4.48954e-011 -2.56271e-027   
     length 3.51317   
     axis 180 30 90   XYZ
    dof rx
    limits (-10.0 170.0)
  end
  begin
     id 27 
     name rwrist
     direction -1 -4.48943e-011 2.56952e-028   
     length 1.75658   
     axis -5.12785e-016 -90 -90   XYZ
    dof ry
    limits (-180.0 0.0)
  end
  begin
     id 28
     name rhand
     direction -1 -4.4912e-011 5.13905e-028   
     length 0.663187   
     axis -3.27915e-016 -90 -90   XYZ
    dof rx rz
    limits (-90.0 90.0)
           (-45.0 45.0)
  end
  begin
     id 29
     name rfingers
     direction -1 -4.48914e-011 1.02781e-027   
     length 0.534679   
     axis -6.5583e-016 -90 -90   XYZ
    dof rx
    limits (0.0 90.0)
  end
  begin
     id 30
     name rthumb
     direction -0.707107 -6.35033e-011 0.707107   
     length 0.767695   
     axis -90 -45 -2.85299e-015   XYZ
    dof rx rz
    limits (-45.0 45.0)
           (-45.0 45.0)
  end
:hierarchy
  begin
    root lhipjoint rhipjoint lowerback
    lhipjoint lfemur
    lfemur ltibia
    ltibia lfoot
    lfoot ltoes
    rhipjoint rfemur
    rfemur rtibia
    rtibia rfoot
    rfoot rtoes
    lowerback upperback
    upperback thorax
    thorax lowerneck lclavicle rclavicle
    lowerneck upperneck
    upperneck head
    lclavicle lhumerus
    lhumerus lradius
    lradius lwrist
    lwrist lhand lthumb
    lhand lfingers
    rclavicle rhumerus
    rhumerus rradius
    rradius rwrist
    rwrist rhand rthumb
    rhand rfingers
  end

#!OML:ASF F:\VICON\USERDATA\INSTALL\Justin_a\Justin_a.ASF
:FULLY-SPECIFIED
:DEGREES
157
root -12.1446 17.8017 -12.2208 8.69413 45.5244 -1.08409
lowerback 0.294403 1.99678 -0.555063
upperback 1.38004 2.65506 2.72587
thorax 1.0953 1.31378 3.12364
lowerneck -16.8818 -2.62361 -5.17653
upperneck 18.6256 -1.97936 -0.917167
head 8.6598 -1.37424 0.300834
rclavicle -1.47101e-014 2.70347e-014
rhumerus -20.4475 -2.35266 -85.3534
rradius 35.7524
rwrist -7.58542
rhand -25.2353 11.9025
rfingers 7.12502
rthumb 1.28428 -18.0734
lclavicle -1.47101e-014 2.70347e-014
lhumerus -36.1443 14.1348 84.2046
lradius 28.884
lwrist -0.811967
lhand -17.0604 21.0244
lfingers 7.12502
lthumb 9.17702 50.8047
rfemur -11.757 3.51492 27.349
rtibia 29.4309
rfoot -28.2344 -11.1522
rtoes 6.1735
lfemur -40.1587 0.998213 -18.579
ltibia 33.0415
lfoot -12.3489 4.751
ltoes -5.64554
158
root -12.1013 17.8004 -12.1733 8.66052 45.3627 -1.12689
lowerback 0.227413 2.13906 -0.613105
upperback 1.48178 2.843 2.72704
thorax 1.22358 1.40518 3.16354
lowerneck -16.7611 -2.72625 -5.2505
upperneck 18.4876 -2.10111 -0.964992
head 8.59475 -1.43922 0.283722
rclavicle -9.44227e-014 -2.54444e-014
rhumerus -20.1533 -2.221 -85.3165
rradius 35.9835
rwrist -7.84032
rhand -25.4924 12.0622
rfingers 7.12502
rthumb 1.03598 -17.915
lclavicle -9.44227e-014 -2.54444e-014
lhumerus -36.1409 14.1764 84.1773
lradius 28.7241
lwrist -0.889555
lhand -17.386 22.6413
lfingers 7.12502
lthumb 8.86289 52.4352
rfemur -11.4197 3.49991 27.3853
rtibia 29.2588
rfoot -28.3032 -11.189
rtoes 5.63193
lfemur -39.912 1.06981 -18.5242
ltibia 31.1693
lfoot -12.0465 4.80142
ltoes -7.07074
159
root -12.0571 17.7971 -12.1268 8.62698 45.2993 -1.25532
lowerback 0.128635 2.15848 -0.568829
upperback 1.55422 2.86671 2.70836
thorax 1.35503 1.41571 3.12597
lowerneck -16.7395 -2.68545 -5.15667
upperneck 18.4381 -2.04813 -1.07468
head 8.57058 -1.41838 0.23852
rclavicle -1.5704e-014 2.06736e-014
rhumerus -19.8617 -2.17997 -85.4526
rradius 36.2081
rwrist -7.92952
rhand -25.5936 12.004
rfingers 7.12502
rthumb 0.938271 -17.9736
lclavicle -1.5704e-014 2.06736e-014
lhumerus -36.1772 14.4051 83.9401
lradius 28.5895
lwrist -0.984743
lhand -17.1966 22.3029
lfingers 7.12502
lthumb 9.04566 52.0889
rfemur -11.1616 3.73818 27.5047
rtibia 29.0652
rfoot -28.3086 -11.4223
rtoes 5.12654
lfemur -39.6944 0.937468 -18.2963
ltibia 29.2726
lfoot -11.7355 4.89911
ltoes -8.06038
160
root -12.0094 17.7926 -12.0818 8.72097 45.2048 -1.28267
lowerback 0.0378752 2.20208 -0.594362
upperback 1.58758 2.92384 2.67896
thorax 1.43714 1.44291 3.11537
lowerneck -16.9174 -2.64557 -4.98807
upperneck 18.6807 -1.9781 -1.26157
head 8.67978 -1.39712 0.152969
rclavicle -1.78906e-015 1.74931e-014
rhumerus -19.5985 -2.13696 -85.5144
rradius 36.3963
rwrist -8.01939
rhand -25.546 11.9245
rfingers 7.12502
rthumb 0.984247 -18.0529
lclavicle -1.78906e-015 1.74931e-014
lhumerus -36.3066 14.5354 83.7957
lradius 28.6285
lwrist -1.13743
lhand -17.1611 22.2633
lfingers 7.12502
lthumb 9.07991 52.0478
rfemur -10.9213 3.82937 27.5134
rtibia 28.7825
rfoot -28.218 -11.5069
rtoes 4.33797
lfemur -39.524 0.76313 -18.1493
ltibia 27.4177
lfoot -11.4071 5.09783
ltoes -8.81156
161
root -11.959 17.7946 -12.0389 8.63053 45.0215 -1.4911
lowerback 0.0680228 2.30605 -0.410414
upperback 1.57207 3.06183 2.63488
thorax 1.40814 1.51481 2.96602
lowerneck -16.8162 -2.58915 -4.80161
upperneck 18.6986 -1.91891 -1.42342
head 8.66264 -1.37269 0.0763837
rclavicle -7.0171e-014 -9.54166e-015
rhumerus -19.4574 -2.18575 -85.5792
rradius 36.5734
rwrist -8.00308
rhand -25.5991 11.7674
rfingers 7.12502
rthumb 0.93298 -18.2103
lclavicle -7.0171e-014 -9.54166e-015
lhumerus -36.5795 14.3238 83.7272
lradius 28.8333
lwrist -0.923338
lhand -17.2487 22.5446
lfingers 7.12502
lthumb 8.99538 52.3328
rfemur -10.6052 3.68852 27.6047
rtibia 28.4789
rfoot -28.2164 -11.0881
rtoes 4.09382
lfemur -39.251 0.659751 -17.849
ltibia 25.549
lfoot -11.1388 5.10542
ltoes -8.28054
162
root -11.9072 17.7957 -11.9938 8.44981 44.9228 -1.71759
lowerback 0.160493 2.37726 -0.258896
upperback 1.58189 3.15673 2.64537
thorax 1.36875 1.56456 2.88854
lowerneck -16.655 -2.56854 -4.91448
upperneck 18.5894 -1.8937 -1.33063
head 8.59842 -1.35664 0.131985
rclavicle 6.89783e-014 1.59028e-015
rhumerus -19.3151 -2.18669 -85.5952
rradius 36.7833
rwrist -8.0328
rhand -25.9671 11.9342
rfingers 7.12502
rthumb 0.577494 -18.0447
lclavicle 6.89783e-014 1.59028e-015
lhumerus -36.766 14.5203 83.5321
lradius 28.7364
lwrist -0.955321
lhand -17.1551 22.3955
lfingers 7.12502
lthumb 9.08572 52.1798
rfemur -10.1844 3.65575 27.74
rtibia 28.1625
rfoot -28.2161 -10.8849
rtoes 4.15865
lfemur -38.8728 0.449799 -17.5227
ltibia 23.6887
lfoot -10.8013 5.26783
ltoes -8.59635
163
root -11.8523 17.7947 -11.9474 8.49908 44.8718 -1.65409
lowerback 0.158168 2.40871 -0.321729
upperback 1.64657 3.19805 2.62902
thorax 1.43187 1.58353 2.90927
lowerneck -16.656 -2.59203 -5.12548
upperneck 18.5677 -1.89339 -1.22739
head 8.59532 -1.36013 0.201395
rclavicle 1.45113e-014 -3.81667e-014
rhumerus -19.0247 -2.21024 -85.5889
rradius 36.7988
rwrist -7.95909
rhand -26.2265 12.3554
rfingers 7.12502
rthumb 0.326967 -17.6241
lclavicle 1.45113e-014 -3.81667e-014
lhumerus -36.7841 15.0713 83.3076
lradius 28.5086
lwrist -1.35645
lhand -17.0322 22.3727
lfingers 7.12502
lthumb 9.20427 52.1518
rfemur -9.75793 3.8719 27.6627
rtibia 27.8033
rfoot -28.1906 -10.9077
rtoes 4.48022
lfemur -38.4967 0.181498 -17.4124
ltibia 21.8646
lfoot -10.3831 5.45691
ltoes -9.32815
164
root -11.7962 17.7871 -11.8979 8.51367 44.8267 -1.64685
lowerback 0.0972329 2.45576 -0.404981
upperback 1.72624 3.2595 2.65591
thorax 1.53859 1.61162 2.98953
lowerneck -16.7226 -2.63843 -5.16541
upperneck 18.6575 -1.92765 -1.27958
head 8.63897 -1.38595 0.184683
rclavicle -7.91163e-014 -7.95139e-016
rhumerus -18.7953 -2.24242 -85.4793
rradius 36.9635
rwrist -7.99348
rhand -25.9937 12.2214
rfingers 7.12502
rthumb 0.551788 -17.7576
lclavicle -7.91163e-014 -7.95139e-016
lhumerus -36.8831 15.227 83.323
lradius 28.5203
lwrist -1.4708
lhand -17.3945 22.457
lfingers 7.12502
lthumb 8.85467 52.2513
rfemur -9.31967 3.91766 27.6592
rtibia 27.4781
rfoot -28.1981 -10.9694
rtoes 4.5
lfemur -38.0628 -0.159999 -17.2037
ltibia 20.0341
lfoot -10.0018 5.71523
ltoes -9.9311
165
root -11.7371 17.7787 -11.8435 8.19924 44.8653 -1.92794
lowerback 0.160553 2.44588 -0.242807
upperback 1.79803 3.24467 2.68432
thorax 1.5849 1.60569 2.92718
lowerneck -16.7307 -2.60306 -4.99285
upperneck 18.7353 -1.88948 -1.42331
head 8.66261 -1.37195 0.112139
rclavicle -5.9039e-014 1.19271e-014
rhumerus -18.6248 -2.18255 -85.5102
rradius 37.1491
rwrist -8.16514
rhand -25.8152 12.054
rfingers 7.12502
rthumb 0.724206 -17.9246
lclavicle -5.9039e-014 1.19271e-014
lhumerus -37.0831 15.0324 83.3023
lradius 28.6046
lwrist -1.30176
lhand -17.465 22.6458
lfingers 7.12502
lthumb 8.78667 52.4429
rfemur -8.74979 3.59248 27.9127
rtibia 27.1851
rfoot -28.1775 -11.0661
rtoes 2.88438
lfemur -37.4605 -0.651759 -16.6965
ltibia 18.1833
lfoot -9.64504 6.01583
ltoes -10.3256
166
root -11.6788 17.7782 -11.7919 8.19477 44.6953 -2.02131
lowerback 0.10274 2.46691 -0.249527
upperback 1.77734 3.27251 2.63618
thorax 1.597 1.61959 2.88382
lowerneck -16.4779 -2.49302 -4.79735
upperneck 18.6097 -1.79192 -1.49829
head 8.56909 -1.31694 0.0709115
rclavicle -5.22804e-014 2.3059e-014
rhumerus -18.4688 -1.96196 -85.6432
rradius 37.2651
rwrist -8.34925
rhand -25.917 11.9586
rfingers 7.12502
rthumb 0.625901 -18.0202
lclavicle -5.22804e-014 2.3059e-014
lhumerus -37.326 15.0885 83.0618
lradius 28.5807
lwrist -1.27164
lhand -17.2148 22.7615
lfingers 7.12502
lthumb 9.02809 52.5483
rfemur -8.41207 3.55803 27.9503
rtibia 26.9196
rfoot -28.1269 -10.9779
rtoes 1.99002
lfemur -37.0273 -0.866858 -16.4106
ltibia 16.4077
lfoot -9.3235 6.23127
ltoes -10.2244
167
root -11.619 17.7801 -11.7401 8.30405 44.5212 -1.98541
lowerback 0.00448697 2.49216 -0.387355
upperback 1.79069 3.30604 2.63549
thorax 1.65649 1.63365 2.96586
lowerneck -16.4037 -2.39763 -4.7597
upperneck 18.5673 -1.65051 -1.61243
head 8.53804 -1.25843 0.0447432
rclavicle 1.47101e-014 -3.57812e-014
rhumerus -18.2673 -1.75955 -85.6751
rradius 37.2905
rwrist -8.37105
rhand -26.0678 11.6943
rfingers 7.12502
rthumb 0.480267 -18.2849
lclavicle 1.47101e-014 -3.57812e-014
lhumerus -37.4763 15.5608 82.874
lradius 28.5347
lwrist -1.49001
lhand -17.3083 22.8446
lfingers 7.12502
lthumb 8.93787 52.6353
rfemur -8.07584 3.71899 27.8659
rtibia 26.6519
rfoot -28.1355 -10.8197
rtoes 2.03773
lfemur -36.5988 -1.04025 -16.2534
ltibia 14.7186
lfoot -8.99083 6.52859
ltoes -8.74083
